<svg xmlns="http://www.w3.org/2000/svg" xmlns:xlink="http://www.w3.org/1999/xlink" width="70" height="70" viewBox="0 0 70 70">
  <defs>
    <linearGradient id="linear-gradient" x1="0.46" y1="0.14" x2="0.804" y2="1" gradientUnits="objectBoundingBox">
      <stop offset="0" stop-color="#62cae8"/>
      <stop offset="1" stop-color="#e0f1f6"/>
    </linearGradient>
  </defs>
  <g id="phone_hold" data-name="phone hold" transform="translate(-257.482 -313.41)">
    <circle id="Ellipse_152" data-name="Ellipse 152" cx="35" cy="35" r="35" transform="translate(257.482 313.41)" fill="url(#linear-gradient)"/>
    <g id="selfie" transform="translate(184.373 245)">
      <path id="Path_396" data-name="Path 396" d="M13.533,40.142l-2.914,3.067a.829.829,0,1,0,1.176,1.169l2.914-3.067a.829.829,0,0,0-1.176-1.169Zm42.034-21.6a3.523,3.523,0,0,0,1.023-2.587,3.179,3.179,0,0,0-3.14-3.416H52.442V5.25A5.256,5.256,0,0,0,47.192,0H31.94a5.256,5.256,0,0,0-5.25,5.25V12.9a3.383,3.383,0,0,0-1.745-.48,3.421,3.421,0,0,0-3.4,3.339l-.118,6.288-.182,10.529a5.589,5.589,0,0,1-.437,2.077l-.42,1a2.49,2.49,0,0,0-2.809.495l-4.2,4.222a.829.829,0,1,0,1.175,1.169l4.2-4.221a.83.83,0,0,1,1.172,0c.208.208,11.057,11.052,11.283,11.283l.006.006.006.006.027.027a.83.83,0,0,1,0,1.172l-5.365,5.365a.829.829,0,1,0,1.172,1.172l5.365-5.365a2.49,2.49,0,0,0,.462-2.874l.76-.76a2.687,2.687,0,0,1,1.727-.782l2.328-.153a13.751,13.751,0,0,0,10.87-6.586,5.259,5.259,0,0,0,3.877-4.936H53.45a3.179,3.179,0,0,0,3.14-3.416,3.523,3.523,0,0,0-1.023-2.587,3.783,3.783,0,0,0,0-5.174,3.783,3.783,0,0,0,0-5.174ZM37.583,44.76l-2.327.153a4.345,4.345,0,0,0-2.792,1.265l-.669.669L21.713,36.764l.619-1.473A7.241,7.241,0,0,0,22.9,32.6l.182-10.528.118-6.287a1.745,1.745,0,0,1,3.491.032V34.761a5.256,5.256,0,0,0,5.25,5.25H46.434A12.1,12.1,0,0,1,37.583,44.76Zm13.2-10a3.6,3.6,0,0,1-3.592,3.592H31.94a3.6,3.6,0,0,1-3.592-3.592V25.5h0V5.25A3.6,3.6,0,0,1,31.94,1.658H47.192A3.6,3.6,0,0,1,50.785,5.25Zm2.666-1.526H52.442V29.719H53.45a1.561,1.561,0,0,1,1.482,1.758A1.561,1.561,0,0,1,53.45,33.235Zm0-5.174H52.442V24.545H53.45A1.561,1.561,0,0,1,54.933,26.3,1.561,1.561,0,0,1,53.45,28.061Zm0-5.174H52.442V19.371H53.45a1.561,1.561,0,0,1,1.482,1.758A1.561,1.561,0,0,1,53.45,22.887Zm0-5.174H52.442V14.2H53.45a1.561,1.561,0,0,1,1.482,1.758A1.561,1.561,0,0,1,53.45,17.713ZM39.566,4.505a.829.829,0,1,0-.829-.829A.829.829,0,0,0,39.566,4.505Zm9.561,12.179a.829.829,0,1,0-1.658,0V33.235L31.663,33.22V5.8a.83.83,0,0,1,.829-.829h3.045a.055.055,0,0,1,.055.055,2.326,2.326,0,0,0,2.323,2.323h3.3A2.326,2.326,0,0,0,43.54,5.029a.055.055,0,0,1,.055-.055H46.64a.83.83,0,0,1,.829.829v7.013a.829.829,0,0,0,1.658,0V5.8A2.49,2.49,0,0,0,46.64,3.316H43.6a1.715,1.715,0,0,0-1.713,1.713.666.666,0,0,1-.665.665h-3.3a.666.666,0,0,1-.665-.665,1.715,1.715,0,0,0-1.713-1.713H32.492A2.49,2.49,0,0,0,30.005,5.8V34.208A2.49,2.49,0,0,0,32.492,36.7H46.64a2.49,2.49,0,0,0,2.487-2.487V16.684ZM47.469,34.208a.83.83,0,0,1-.829.829H32.492a.83.83,0,0,1-.829-.829v-.986l15.805,0v.988Z" transform="translate(70 77.41)" fill="#212d39"/>
    </g>
    <g id="microphone_3_" data-name="microphone (3)" transform="translate(284.628 342)">
      <path id="Path_151" data-name="Path 151" d="M13.016,15.317a.368.368,0,0,0-.729,0,3.087,3.087,0,0,1-3.279,2.85,3.087,3.087,0,0,1-3.279-2.85.368.368,0,0,0-.729,0A3.713,3.713,0,0,0,8.644,18.8v.95a.368.368,0,0,0,.729,0V18.8A3.713,3.713,0,0,0,13.016,15.317Z" transform="translate(0.369 -7.126)" fill="#212d39" stroke="#212d39" stroke-width="0.5"/>
      <path id="Path_152" data-name="Path 152" d="M11.832,6.118A1.608,1.608,0,0,0,13.5,4.582V2.535A1.608,1.608,0,0,0,11.832,1,1.608,1.608,0,0,0,10.16,2.535V4.582A1.608,1.608,0,0,0,11.832,6.118ZM10.717,2.535a1.118,1.118,0,0,1,2.229,0V4.582a1.118,1.118,0,0,1-2.229,0Z" transform="translate(-2.454 3.454)" fill="#212d39" stroke="#212d39" stroke-width="0.5"/>
    </g>
  </g>
</svg>
