<svg xmlns="http://www.w3.org/2000/svg" xmlns:xlink="http://www.w3.org/1999/xlink" width="70" height="70" viewBox="0 0 70 70">
  <defs>
    <linearGradient id="linear-gradient" x1="0.46" y1="0.14" x2="0.804" y2="1" gradientUnits="objectBoundingBox">
      <stop offset="0" stop-color="#6dd9bf"/>
      <stop offset="1" stop-color="#d9f2fb"/>
    </linearGradient>
  </defs>
  <g id="silence_icon" data-name="silence icon" transform="translate(-5.75 -1.053)">
    <circle id="quiet" cx="35" cy="35" r="35" transform="translate(5.75 1.053)" fill="url(#linear-gradient)"/>
    <path id="Path_392" data-name="Path 392" d="M45.75,6a1,1,0,0,1,1,1v3.37a1,1,0,0,0,.181.573l5.578,7.968a3,3,0,0,1-.551,4.036l-2.353,1.938.429,2a2,2,0,0,1-1.387,2.337l-5.862,1.737a1,1,0,1,1-.568-1.918L48.078,27.3l-.429-2a2,2,0,0,1,.684-1.963L50.686,21.4a1,1,0,0,0,.184-1.345L45.292,12.09a3,3,0,0,1-.542-1.72V7a1,1,0,0,1,1-1Z" transform="translate(-13.5 0)" fill="#212d39"/>
    <path id="Path_393" data-name="Path 393" d="M33.75,56.5a1,1,0,0,1,1,1v1.57a3,3,0,0,1-.622,1.829l-1.671,2.172a1,1,0,0,0-.207.61v.846a2.452,2.452,0,0,1-.94,2.019C29.043,68.2,23.771,69.072,15.068,64.9a1,1,0,1,1,.864-1.8c8.433,4.041,12.81,2.846,14.2,1.832a.731.731,0,0,0,.121-.4V63.68a3,3,0,0,1,.622-1.829l1.671-2.172a1,1,0,0,0,.207-.61V57.5a1,1,0,0,1,1-1Z" transform="translate(0 -25.25)" fill="#212d39"/>
    <path id="Path_394" data-name="Path 394" d="M60.327,48a1.244,1.244,0,0,1,1.244,1.244V63.283a1,1,0,0,0,2,0V61.065a1.03,1.03,0,0,1,2.06,0v2.643a1,1,0,1,0,2,0V62.446a1.137,1.137,0,0,1,2.274,0v2.111a1,1,0,0,0,2,0c0-.893.413-1.336.923-1.336a.923.923,0,0,1,.923.923v7.873a3,3,0,0,1-.533,1.707l-.93,1.345A5,5,0,0,0,71.4,78H58.141l-.657-1.792A5.288,5.288,0,0,0,56.4,74.45c-.595-.645-1.531-1.7-2.31-2.747a12.922,12.922,0,0,1-1.369-4.11c-.106-.622-.161-1.156-.19-1.532-.014-.188-.026-.473-.03-.571a1,1,0,0,0-1.011-.989,1.016,1.016,0,0,0-.989,1.029c0,.12.019.471.036.684.032.425.094,1.021.212,1.715a14.834,14.834,0,0,0,1.635,4.821c.85,1.15,1.924,2.384,2.546,3.058a3.286,3.286,0,0,1,.677,1.091l.4,1.1H56c-.75,0-1.25.448-1.25,1v4a1,1,0,0,0,2,0V80h16v3a1,1,0,0,0,2,0V79a1,1,0,0,0-1-1H73.4a2.963,2.963,0,0,1,.533-1.795l.93-1.345a5,5,0,0,0,.888-2.844V64.144a2.925,2.925,0,0,0-4.014-2.713,3.139,3.139,0,0,0-4.442-1.755,3.034,3.034,0,0,0-3.724-1.462V49.244a3.244,3.244,0,0,0-6.487,0v16.7a3,3,0,0,1-.32,1.348l-.214.426a1,1,0,0,0,1.787.9l.214-.426a5,5,0,0,0,.533-2.247v-16.7A1.244,1.244,0,0,1,60.327,48Z" transform="translate(-18 -20)" fill="#212d39"/>
    <path id="Path_395" data-name="Path 395" d="M64.923,115.63a1,1,0,1,0,0,2h1.692a1,1,0,1,0,0-2Z" transform="translate(-24.712 -54.815)" fill="#212d39"/>
  </g>
</svg>
