<svg xmlns="http://www.w3.org/2000/svg" width="68.265" height="54.848" viewBox="0 0 68.265 54.848">
  <g id="opt_icon" data-name="opt icon" transform="translate(-153.867 -46)">
    <path id="heart_bg" data-name="heart bg" d="M12.9.039C26.438-.713,28.653,9.7,36.623,11.56,43.4,13.142,47.241,4.331,56.728,4.783s17.394,12.124,5.648,30.2c-13.9,21.384-24.744,22.527-34.94,17.17-13.329-7-21.376-16.413-25.377-26.13C-2.685,14.5.7.717,12.9.039" transform="translate(153.868 46)" fill="#f8d8da"/>
    <g id="Group_1038" data-name="Group 1038" transform="matrix(0.996, -0.087, 0.087, 0.996, 171.594, 55.128)">
      <rect id="Rectangle_564" data-name="Rectangle 564" width="23.141" height="36.365" rx="4" transform="translate(0 0)" fill="#fe515c"/>
      <path id="Union_1" data-name="Union 1" d="M5,13.774a5,5,0,0,1-5-5V7.226a5,5,0,0,1,5-5h.217q.02-.039.043-.077L6.125.735a1,1,0,0,1,1.706,0l.863,1.413q.023.038.043.077H22.428a5,5,0,0,1,5,5V8.775a5,5,0,0,1-5,5Z" transform="translate(6.733 13.653)" fill="#fff"/>
      <path id="Path_595" data-name="Path 595" d="M3.711,1.051A.525.525,0,0,0,2.993.858l-.577.333V.525a.525.525,0,0,0-1.051,0v.666L.788.858a.525.525,0,1,0-.525.91L.84,2.1l-.577.333a.525.525,0,0,0,.525.91l.577-.333v.666a.525.525,0,0,0,1.051,0V3.012l.577.333a.525.525,0,0,0,.525-.91L2.942,2.1l.577-.333a.526.526,0,0,0,.192-.718Z" transform="translate(16.598 19.609)" fill="#757575"/>
      <path id="Path_596" data-name="Path 596" d="M3.711,1.051A.525.525,0,0,0,2.993.858l-.577.333V.525a.525.525,0,0,0-1.051,0v.666L.788.858a.525.525,0,1,0-.525.91L.84,2.1l-.577.333a.525.525,0,0,0,.525.91l.577-.333v.666a.525.525,0,0,0,1.051,0V3.012l.577.333a.525.525,0,0,0,.525-.91L2.942,2.1l.577-.333a.526.526,0,0,0,.192-.718Z" transform="translate(11.304 19.609)" fill="#757575"/>
      <path id="Path_597" data-name="Path 597" d="M3.518,2.435,2.942,2.1l.577-.333a.525.525,0,0,0-.525-.91l-.577.333V.525a.525.525,0,0,0-1.051,0v.666L.788.858a.525.525,0,1,0-.525.91L.84,2.1l-.577.333a.525.525,0,1,0,.525.91l.577-.333v.666a.525.525,0,0,0,1.051,0V3.012l.577.333a.525.525,0,0,0,.525-.91Z" transform="translate(21.891 19.609)" fill="#757575"/>
      <path id="Path_598" data-name="Path 598" d="M3.518,2.435,2.942,2.1l.577-.333a.525.525,0,0,0-.525-.91l-.577.333V.525a.525.525,0,0,0-1.051,0v.666L.788.858a.525.525,0,1,0-.525.91L.84,2.1l-.577.333a.525.525,0,1,0,.525.91l.577-.333v.666a.525.525,0,0,0,1.051,0V3.012l.577.333a.525.525,0,0,0,.525-.91Z" transform="translate(27.184 19.609)" fill="#757575"/>
      <path id="Rectangle_565" data-name="Rectangle 565" d="M0,0H8.816a0,0,0,0,1,0,0V0a2.2,2.2,0,0,1-2.2,2.2H2.2A2.2,2.2,0,0,1,0,0V0A0,0,0,0,1,0,0Z" transform="translate(7.163 0)" fill="#fb8d94"/>
      <rect id="Rectangle_567" data-name="Rectangle 567" width="6.061" height="1.102" rx="0.551" transform="translate(8.816 32.508)" fill="#fff"/>
    </g>
  </g>
</svg>
