<svg xmlns="http://www.w3.org/2000/svg" width="23.68" height="23.68" viewBox="0 0 23.68 23.68">
  <g id="phone_icon" data-name="phone icon" transform="translate(-1.997 -2.121)">
    <path id="Path_580" data-name="Path 580" d="M25.651,21.439A5.936,5.936,0,0,1,24.4,24.456,3.74,3.74,0,0,1,21.426,25.8a19.281,19.281,0,0,1-7.555-1.533A19.427,19.427,0,0,1,2,6.373,3.74,3.74,0,0,1,3.343,3.4,5.936,5.936,0,0,1,6.359,2.148a2.7,2.7,0,0,1,2.029.54.394.394,0,0,1,.1.092l2.574,3.265a2.7,2.7,0,0,1-.1,3.383l-.777.815-.626.653c.14,1.91,2.126,4.279,4.317,5.812A9.174,9.174,0,0,0,16.941,18.2l.621-.583.793-.755a2.7,2.7,0,0,1,3.394-.13l3.276,2.59.092.092A2.7,2.7,0,0,1,25.651,21.439Z" transform="translate(0 0)" fill="#c4c4c4"/>
    <path id="Path_581" data-name="Path 581" d="M35.78,33.451a5.936,5.936,0,0,1-1.252,3.017,3.74,3.74,0,0,1-2.973,1.344A19.281,19.281,0,0,1,24,36.279V28.724a9.174,9.174,0,0,0,3.071,1.495l.621-.583.793-.755a2.7,2.7,0,0,1,3.394-.13l3.276,2.585.092.092A2.7,2.7,0,0,1,35.78,33.451Z" transform="translate(-10.129 -12.012)" fill="#c4c4c4"/>
  </g>
</svg>
