<svg xmlns="http://www.w3.org/2000/svg" width="34" height="34" viewBox="0 0 34 34">
  <g id="help" transform="translate(-61 -31)">
    <circle id="bg" cx="17" cy="17" r="17" transform="translate(61 31)" fill="#fff"/>
    <path id="help_icon" data-name="help icon" d="M138.216,87.327a4.825,4.825,0,0,1,.814-2.57,6.269,6.269,0,0,1,2.376-2.156,7.477,7.477,0,0,1,3.644-.854,7.783,7.783,0,0,1,3.417.714,5.543,5.543,0,0,1,2.289,1.942,4.765,4.765,0,0,1,.808,2.67,4.127,4.127,0,0,1-.461,1.989,6.088,6.088,0,0,1-1.095,1.475q-.634.621-2.276,2.089a9.248,9.248,0,0,0-.727.728,2.951,2.951,0,0,0-.407.574,2.8,2.8,0,0,0-.207.521q-.074.26-.22.914a1.486,1.486,0,0,1-1.588,1.388,1.623,1.623,0,0,1-1.168-.454,1.782,1.782,0,0,1-.474-1.348,4.733,4.733,0,0,1,1.268-3.384,21.1,21.1,0,0,1,1.548-1.475q.854-.747,1.235-1.128a3.824,3.824,0,0,0,.641-.848,2.05,2.05,0,0,0,.26-1.014,2.359,2.359,0,0,0-.794-1.8,2.9,2.9,0,0,0-2.049-.734,2.834,2.834,0,0,0-2.163.741,5.907,5.907,0,0,0-1.175,2.182Q141.259,89,139.991,89a1.692,1.692,0,0,1-1.261-.527A1.613,1.613,0,0,1,138.216,87.327Zm6.514,14.63a2.1,2.1,0,0,1-1.422-.527,1.848,1.848,0,0,1-.607-1.475,1.9,1.9,0,0,1,.587-1.415,1.984,1.984,0,0,1,1.442-.574,1.96,1.96,0,0,1,1.989,1.989,1.863,1.863,0,0,1-.6,1.468A2.027,2.027,0,0,1,144.73,101.957Z" transform="translate(-66.89 -43.966)" fill="#212d39"/>
  </g>
</svg>
