<svg xmlns="http://www.w3.org/2000/svg" width="34" height="34" viewBox="0 0 34 34">
  <g id="settings" transform="translate(-11 -31)">
    <circle id="bg" cx="17" cy="17" r="17" transform="translate(11 31)" fill="#fff"/>
    <path id="settings_icon" data-name="settings icon" d="M21.82,14.309l-.4-.233a1.535,1.535,0,0,1,0-2.659l.4-.233a2.3,2.3,0,0,0,.843-3.146l-.768-1.329a2.305,2.305,0,0,0-3.146-.843l-.4.233a1.535,1.535,0,0,1-2.3-1.329V4.3A2.306,2.306,0,0,0,13.74,2H12.2A2.306,2.306,0,0,0,9.9,4.3v.467A1.535,1.535,0,0,1,7.6,6.1l-.4-.233a2.306,2.306,0,0,0-3.146.843L3.281,8.038a2.3,2.3,0,0,0,.843,3.146l.4.233a1.535,1.535,0,0,1,0,2.659l-.4.233a2.3,2.3,0,0,0-.843,3.146l.768,1.329a2.306,2.306,0,0,0,3.146.843l.4-.233a1.535,1.535,0,0,1,2.3,1.329v.466a2.306,2.306,0,0,0,2.3,2.3H13.74a2.306,2.306,0,0,0,2.3-2.3v-.467a1.535,1.535,0,0,1,2.3-1.329l.4.233a2.307,2.307,0,0,0,3.146-.843l.768-1.329a2.3,2.3,0,0,0-.843-3.146Zm-8.847,2.275a3.838,3.838,0,1,1,3.838-3.838,3.842,3.842,0,0,1-3.838,3.838Z" transform="translate(15.028 35)" fill="#212d39"/>
  </g>
</svg>
