<svg xmlns="http://www.w3.org/2000/svg" width="65.904" height="52.95" viewBox="0 0 65.904 52.95">
  <g id="top_elements" data-name="top elements" transform="translate(-155.048 -48.328)">
    <g id="presents_counter_" data-name="presents counter " transform="translate(0.952)">
      <path id="small_hurt" data-name="small hurt" d="M12.456.038c13.068-.726,15.207,9.328,22.9,11.123,6.542,1.527,10.25-6.979,19.41-6.542s16.793,11.7,5.452,29.151C46.8,54.414,36.331,55.517,26.487,50.345,13.619,43.584,5.85,34.5,1.988,25.119-2.593,14,.679.692,12.456.038" transform="translate(154.097 48.328)" fill="#f8d8da"/>
      <g id="heart_strips_icon" data-name="heart strips icon" transform="translate(155.002 49.004)">
        <g id="Group_1034" data-name="Group 1034">
          <g id="_01" data-name="01">
            <path id="Path_385-8" d="M35.04,49.88c3.95-.04,5.37.25,5.37.84s-1.57.67-5.37.67-5.35-.11-5.37-.67S31.08,49.92,35.04,49.88Z" fill="#f0525e"/>
          </g>
          <g id="_02" data-name="02">
            <path id="Path_385-7" d="M34.77,46.31c8.88-.05,12.06.29,12.05.97s-3.52.77-12.05.77-12.02-.13-12.05-.77S25.89,46.36,34.77,46.31Z" fill="#f0525e"/>
          </g>
          <g id="_03" data-name="03">
            <path id="Path_385-6" d="M33.78,42.25c15.84.14,17.42.29,17.41.98s-1.03.88-17.41.86-17.36-.22-17.41-.86S17.94,42.1,33.78,42.25Z" fill="#f0525e"/>
          </g>
          <g id="_04" data-name="04">
            <path id="Path_385-5" d="M33.38,38.25c18.99.17,20.88.34,20.87,1.14s-1.23,1.02-20.87,1-20.82-.25-20.87-1,1.88-1.3,20.87-1.14Z" fill="#f0525e"/>
          </g>
          <g id="_05" data-name="05">
            <path id="Path_385-2" d="M32.73,34.13c22.33.17,24.55.34,24.54,1.14s-1.44,1.02-24.54,1-24.47-.25-24.54-1S10.4,33.97,32.73,34.13Z" fill="#f0525e"/>
          </g>
          <g id="_06" data-name="06">
            <path id="Path_385" d="M32.55,29.33c23.11.14,27.47.39,27.45,1.32s-1.62,1.4-27.45,1.37S5.17,31.52,5.1,30.65,9.44,29.19,32.55,29.33Z" fill="#f0525e"/>
          </g>
          <g id="_07" data-name="07">
            <path id="Path_385-9" d="M32.8,24.26c25.48.14,30.29.39,30.27,1.32s-1.78,1.4-30.27,1.37-30.19-.5-30.27-1.37S7.32,24.12,32.8,24.26Z" fill="#f0525e"/>
          </g>
          <g id="_08" data-name="08">
            <path id="Path_385-4" d="M32.52,19.88c28.95.18,31.84.37,31.82,1.24s-1.87,1.12-31.82,1.09S.79,21.94.7,21.12s2.87-1.42,31.82-1.24Z" fill="#f0525e"/>
          </g>
          <g id="_09" data-name="09">
            <path id="Path_385-3" d="M32.59,15.45c29.48.17,32.42.34,32.39,1.14s-1.91,1.02-32.39,1S.27,17.33.19,16.58s2.92-1.3,32.4-1.14Z" fill="#f0525e"/>
          </g>
          <g id="_10" data-name="10">
            <path id="Path_385-3-2" d="M32.09,11.19c29.19.16,32.1.31,32.08,1.05s-1.89.94-32.08.92S.09,12.92,0,12.23s2.89-1.2,32.09-1.05Z" fill="#f0525e"/>
          </g>
          <g id="_11_1" data-name="11 1">
            <path id="Path_385-6-2" d="M14.83,7.19c12.45.14,13.69.29,13.68.98s-.81.88-13.68.86S1.18,8.81,1.15,8.17,2.38,7.04,14.83,7.19Z" fill="#f0525e"/>
          </g>
          <g id="_11_2" data-name="11 2">
            <path id="Path_385-6-4" d="M52.77,7.36c7.74.13,8.52.26,8.51.89s-.5.8-8.51.78-8.49-.2-8.51-.78.77-1.02,8.51-.89Z" fill="#f0525e"/>
          </g>
          <g id="_12_1" data-name="12 1">
            <path id="Path_385-6-3" d="M13.72,3.61c9.9.13,10.88.25,10.88.85s-.64.76-10.88.75S2.87,5.02,2.84,4.46s.98-.97,10.88-.85Z" fill="#f0525e"/>
          </g>
          <g id="_12_2" data-name="12 2">
            <path id="Path_385-8-3" d="M53.26,4.6c2.83-.03,3.85.19,3.84.62s-1.12.49-3.84.49-3.83-.08-3.84-.49,1.01-.59,3.84-.62Z" fill="#f0525e"/>
          </g>
          <g id="_13" data-name="13">
            <path id="Path_385-8-2" d="M13.17,0c3.95-.04,5.37.25,5.37.84s-1.57.67-5.37.67S7.82,1.4,7.8.84,9.21.04,13.17,0Z" fill="#f0525e"/>
          </g>
        </g>
      </g>
    </g>
  </g>
</svg>
