<svg xmlns="http://www.w3.org/2000/svg" width="22.237" height="23.22" viewBox="0 0 22.237 23.22">
  <path id="home" d="M52.368,23.754H36.943a3.412,3.412,0,0,1-3.406-3.408v-8.7a4.377,4.377,0,0,1,.753-2.458,2.811,2.811,0,0,1,.639-.9l7.188-6.752a3.713,3.713,0,0,1,5.077,0l7.19,6.755a2.836,2.836,0,0,1,.638.9,4.385,4.385,0,0,1,.752,2.456v8.7a3.412,3.412,0,0,1-3.406,3.408M44.655,2.2a2.032,2.032,0,0,0-1.393.551L36.07,9.511a1.207,1.207,0,0,0-.284.428l-.082.143a2.726,2.726,0,0,0-.5,1.568v8.7a1.738,1.738,0,0,0,1.735,1.735H52.368A1.738,1.738,0,0,0,54.1,20.347v-8.7a2.727,2.727,0,0,0-.5-1.568l-.081-.143a1.217,1.217,0,0,0-.283-.428L46.049,2.756A2.034,2.034,0,0,0,44.655,2.2" transform="translate(-33.537 -0.534)" fill="#1a1818"/>
</svg>
