<svg id="id_icon" data-name="id icon" xmlns="http://www.w3.org/2000/svg" width="23.425" height="31.771" viewBox="0 0 23.425 31.771">
  <path id="Path_575" data-name="Path 575" d="M23.425,2.928V28.842A2.927,2.927,0,0,1,20.5,31.771H2.928A2.927,2.927,0,0,1,0,28.842V2.928A2.927,2.927,0,0,1,2.928,0H20.5A2.927,2.927,0,0,1,23.425,2.928Zm0,0" transform="translate(0 0)" fill="#c4c4c4"/>
  <path id="Path_576" data-name="Path 576" d="M11.588,0H2.928A2.927,2.927,0,0,0,0,2.928V28.842a2.927,2.927,0,0,0,2.928,2.928h8.66Zm0,0" transform="translate(0 0)" fill="#c4c4c4"/>
  <path id="Path_577" data-name="Path 577" d="M100.761,265.387H90.6a5.084,5.084,0,1,1,10.16,0Zm0,0" transform="translate(-83.969 -241.061)" fill="#fff"/>
  <path id="Path_578" data-name="Path 578" d="M121.444,137.7a3.053,3.053,0,1,1-3.045,3.053A3.053,3.053,0,0,1,121.444,137.7Zm0,0" transform="translate(-109.731 -127.619)" fill="#fff"/>
  <path id="Path_579" data-name="Path 579" d="M114.986,38.566H109.13a.732.732,0,1,1,0-1.464h5.856a.732.732,0,0,1,0,1.464Zm0,0" transform="translate(-100.463 -34.386)" fill="#fff"/>
</svg>
