<svg xmlns="http://www.w3.org/2000/svg" width="19.518" height="19.518" viewBox="0 0 19.518 19.518">
  <path id="volume_off" data-name="volume off" d="M17,11.727v7.6a1.669,1.669,0,0,1-2.75,1.27l-3.442-2.92a.3.3,0,0,1-.019-.44l5.7-5.725a.3.3,0,0,1,.511.215ZM21.53,2.47a.749.749,0,0,0-1.06,0L17,5.939V4.67A1.669,1.669,0,0,0,14.25,3.4L10.56,6.53A2.026,2.026,0,0,1,9.27,7H7.5A1.5,1.5,0,0,0,6,8.5v7a1.468,1.468,0,0,0,.422,1.017L2.47,20.47a.75.75,0,1,0,1.06,1.06l18-18a.749.749,0,0,0,0-1.06Z" transform="translate(-2.231 -2.25)" fill="#212d39"/>
</svg>
