<svg xmlns="http://www.w3.org/2000/svg" width="160.353" height="128.836" viewBox="0 0 160.353 128.836">
  <g id="Heart_finish_page" data-name="Heart finish page" transform="translate(-107.323 -148.565)">
    <path id="heart_03" data-name="heart 03" d="M30.307.091c31.8-1.767,37,22.7,55.72,27.063,15.918,3.716,24.941-16.981,47.227-15.918s40.859,28.478,13.266,70.93C113.871,132.4,88.4,135.081,64.447,122.5,33.138,106.046,14.235,83.942,4.837,61.117-6.308,34.052,1.653,1.683,30.307.091" transform="translate(107.324 148.565)" fill="#e0f1f6" opacity="0.13"/>
    <path id="heart_02" data-name="heart 02" d="M21.978.067c23.405-1.3,27.236,16.707,41.017,19.922C74.713,22.724,81.354,7.489,97.76,8.271s28.7,17.382,8.388,48.631C76.363,93.006,61.5,92.341,43.87,83.077,31.233,76.759,13.632,63.671,3.229,44.99S.885,1.239,21.978.067" transform="translate(129.775 172.575)" fill="#219494" opacity="0"/>
    <g id="heart_01" data-name="heart 01" transform="translate(18.165 22.595)">
      <path id="heart_bg" data-name="heart bg" d="M15.083.046c15.824-.879,18.414,11.3,27.73,13.468,7.922,1.849,12.412-8.451,23.5-7.922s20.335,14.173,6.6,35.3c-16.249,25-28.926,26.335-40.846,20.072C16.492,52.777,7.084,41.776,2.407,30.417-3.139,16.947.822.838,15.083.046" transform="translate(127.295 158.328)" fill="#fb8d94"/>
      <g id="heart_strips_icon" data-name="heart strips icon" transform="translate(128.325 160.145)">
        <g id="Group_885" data-name="Group 885" transform="translate(9.404 36.695)">
          <path id="Path_385" data-name="Path 385" d="M29.468-.128C54.274.027,58.955.294,58.936,1.289S57.2,2.79,29.468,2.761.078,2.223,0,1.289,4.662-.283,29.468-.128Z" transform="translate(0.001 0.151)" fill="#fe515c"/>
        </g>
        <g id="Group_894" data-name="Group 894" transform="translate(3.339 29.989)">
          <path id="Path_385-2" data-name="Path 385" d="M35.755-.122C65.853.07,71.532.4,71.509,1.637S69.4,3.5,35.755,3.465.1,2.8,0,1.637,5.656-.314,35.755-.122Z" transform="translate(0.001 0.151)" fill="#fe515c"/>
        </g>
        <g id="Group_895" data-name="Group 895" transform="translate(0 22.754)">
          <path id="Path_385-3" data-name="Path 385" d="M39.233-.12C72.259.092,78.49.457,78.465,1.817s-2.311,2.05-39.232,2.01S.1,3.092,0,1.817,6.207-.331,39.233-.12Z" transform="translate(0.001 0.151)" fill="#fe515c"/>
        </g>
        <g id="Group_896" data-name="Group 896" transform="translate(0 15.196)">
          <path id="Path_385-4" data-name="Path 385" d="M39.233-.12C72.259.092,78.49.457,78.465,1.817s-2.311,2.05-39.232,2.01S.1,3.092,0,1.817,6.207-.331,39.233-.12Z" transform="translate(0.001 0.151)" fill="#fe515c"/>
        </g>
        <g id="Group_888" data-name="Group 888" transform="translate(12.869 41.975)">
          <path id="Path_385-5" data-name="Path 385" d="M26.339-.132C50.305.048,52.7.23,52.678,1.086s-1.552,1.1-26.339,1.073S.07,1.887,0,1.086,2.373-.312,26.339-.132Z" transform="translate(0.001 0.165)" fill="#fe515c"/>
        </g>
        <g id="Group_897" data-name="Group 897" transform="translate(50.641 9.677)">
          <path id="Path_385-6" data-name="Path 385" d="M12.95-.131C24.734.057,25.909.248,25.9,1.142S25.138,2.29,12.95,2.264.034,1.98,0,1.142,1.166-.319,12.95-.131Z" transform="translate(0.001 0.165)" fill="#fe515c"/>
        </g>
        <g id="Group_898" data-name="Group 898" transform="translate(1.852 9.677)">
          <path id="Path_385-7" data-name="Path 385" d="M16.966-.131C32.4.057,33.944.248,33.933,1.142s-1,1.148-16.967,1.122S.044,1.98,0,1.142,1.528-.319,16.966-.131Z" transform="translate(0.001 0.165)" fill="#fe515c"/>
        </g>
        <g id="Group_889" data-name="Group 889" transform="translate(17.912 46.269)">
          <path id="Path_385-8" data-name="Path 385" d="M21.747-.132C41.534.048,43.507.23,43.493,1.086s-1.281,1.1-21.747,1.073S.057,1.887,0,1.086,1.959-.312,21.747-.132Z" transform="translate(0.001 0.165)" fill="#fe515c"/>
        </g>
        <g id="Group_890" data-name="Group 890" transform="translate(21.514 50.563)">
          <path id="Path_385-9" data-name="Path 385" d="M18.685-.137c17,.156,18.7.313,18.685,1.052s-1.1.949-18.685.928S.049,1.609,0,.916,1.683-.292,18.685-.137Z" transform="translate(0.001 0.165)" fill="#fe515c"/>
        </g>
        <g id="Group_891" data-name="Group 891" transform="translate(28.898 54.94)">
          <path id="Path_385-10" data-name="Path 385" d="M12.651-.136C21.972-.187,25.311.173,25.3.9s-3.691.823-12.652.823S.033,1.585,0,.9,3.33-.084,12.651-.136Z" transform="translate(0.001 0.14)" fill="#fe515c"/>
        </g>
        <g id="Group_899" data-name="Group 899" transform="translate(3.595 4.233)">
          <path id="Path_385-11" data-name="Path 385" d="M12.651-.136C21.972-.187,25.311.173,25.3.9s-3.691.823-12.652.823S.033,1.585,0,.9,3.33-.084,12.651-.136Z" transform="translate(0.001 0.14)" fill="#fe515c"/>
        </g>
        <g id="Group_900" data-name="Group 900" transform="translate(57.971 5.41)">
          <path id="Path_385-12" data-name="Path 385" d="M6.308-.136C10.956-.187,12.621.173,12.617.9s-1.841.823-6.309.823S.016,1.585,0,.9,1.66-.084,6.308-.136Z" transform="translate(0.001 0.14)" fill="#fe515c"/>
        </g>
        <g id="Group_901" data-name="Group 901" transform="translate(9.938 0)">
          <path id="Path_385-13" data-name="Path 385" d="M6.308-.136C10.956-.187,12.621.173,12.617.9s-1.841.823-6.309.823S.016,1.585,0,.9,1.66-.084,6.308-.136Z" transform="translate(0.001 0.14)" fill="#fe515c"/>
        </g>
        <g id="Group_892" data-name="Group 892" transform="translate(35.787 58.773)">
          <path id="Path_385-14" data-name="Path 385" d="M5.762-.136c4.246-.045,5.767.269,5.763.9s-1.682.716-5.763.716S.014,1.362,0,.767,1.516-.092,5.762-.136Z" transform="translate(0.001 0.14)" fill="#fe515c"/>
        </g>
      </g>
    </g>
  </g>
</svg>
