<svg xmlns="http://www.w3.org/2000/svg" xmlns:xlink="http://www.w3.org/1999/xlink" width="375" height="155" viewBox="0 0 375 155">
  <defs>
    <clipPath id="clip-path">
      <rect id="Rectangle_576" data-name="Rectangle 576" width="2" height="153" transform="translate(0 213)" fill="#212d39"/>
    </clipPath>
  </defs>
  <g id="voice_recording" data-name="voice recording" transform="translate(0 -200.5)">
    <rect id="white_bg" data-name="white bg" width="374" height="154" transform="translate(1 201)" fill="#fff"/>
    <rect id="color_bottom_bg" data-name="color bottom bg" width="375" height="108" transform="translate(0 247)" fill="#e0f1f6"/>
    <g id="lines">
      <rect id="Rectangle_439" data-name="Rectangle 439" width="1" height="153.798" transform="translate(0 201.202)" fill="#abe5e9" opacity="0.5"/>
      <rect id="Rectangle_439-2" data-name="Rectangle 439" width="1" height="153.798" transform="translate(7 201.202)" fill="#abe5e9" opacity="0.5"/>
      <rect id="Rectangle_439-3" data-name="Rectangle 439" width="1" height="153.798" transform="translate(14 201.202)" fill="#abe5e9" opacity="0.5"/>
      <rect id="Rectangle_439-4" data-name="Rectangle 439" width="1" height="153.798" transform="translate(21 201.202)" fill="#abe5e9" opacity="0.5"/>
      <rect id="Rectangle_439-5" data-name="Rectangle 439" width="1" height="153.798" transform="translate(28 201.202)" fill="#abe5e9" opacity="0.5"/>
      <rect id="Rectangle_439-6" data-name="Rectangle 439" width="1" height="153.798" transform="translate(35 201.202)" fill="#abe5e9" opacity="0.5"/>
      <rect id="Rectangle_439-7" data-name="Rectangle 439" width="1" height="153.798" transform="translate(42 201.202)" fill="#abe5e9" opacity="0.5"/>
      <rect id="Rectangle_439-8" data-name="Rectangle 439" width="1" height="153.798" transform="translate(49 201.202)" fill="#abe5e9" opacity="0.5"/>
      <rect id="Rectangle_439-9" data-name="Rectangle 439" width="1" height="153.798" transform="translate(56 201.202)" fill="#abe5e9" opacity="0.5"/>
      <rect id="Rectangle_439-10" data-name="Rectangle 439" width="1" height="153.798" transform="translate(63 201.202)" fill="#abe5e9" opacity="0.5"/>
      <rect id="Rectangle_439-11" data-name="Rectangle 439" width="1" height="153.798" transform="translate(70 201.202)" fill="#abe5e9" opacity="0.5"/>
      <rect id="Rectangle_439-12" data-name="Rectangle 439" width="1" height="153.798" transform="translate(77 201.202)" fill="#abe5e9" opacity="0.5"/>
      <rect id="Rectangle_439-13" data-name="Rectangle 439" width="1" height="153.798" transform="translate(84 201.202)" fill="#abe5e9" opacity="0.5"/>
      <rect id="Rectangle_439-14" data-name="Rectangle 439" width="1" height="153.798" transform="translate(91 201.202)" fill="#abe5e9" opacity="0.5"/>
      <rect id="Rectangle_439-15" data-name="Rectangle 439" width="1" height="153.798" transform="translate(98 201.202)" fill="#abe5e9" opacity="0.5"/>
      <rect id="Rectangle_439-16" data-name="Rectangle 439" width="1" height="153.798" transform="translate(105 201.202)" fill="#abe5e9" opacity="0.5"/>
      <rect id="Rectangle_439-17" data-name="Rectangle 439" width="1" height="153.798" transform="translate(112 201.202)" fill="#abe5e9" opacity="0.5"/>
      <rect id="Rectangle_439-18" data-name="Rectangle 439" width="1" height="153.798" transform="translate(119 201.202)" fill="#abe5e9" opacity="0.5"/>
      <rect id="Rectangle_439-19" data-name="Rectangle 439" width="1" height="153.798" transform="translate(126 201.202)" fill="#abe5e9" opacity="0.5"/>
      <rect id="Rectangle_439-20" data-name="Rectangle 439" width="1" height="153.798" transform="translate(133 201.202)" fill="#abe5e9" opacity="0.5"/>
      <rect id="Rectangle_439-21" data-name="Rectangle 439" width="1" height="153.798" transform="translate(140 201.202)" fill="#abe5e9" opacity="0.5"/>
      <rect id="Rectangle_439-22" data-name="Rectangle 439" width="1" height="153.798" transform="translate(147 201.202)" fill="#abe5e9" opacity="0.5"/>
      <rect id="Rectangle_439-23" data-name="Rectangle 439" width="1" height="153.798" transform="translate(154 201.202)" fill="#abe5e9" opacity="0.5"/>
      <rect id="Rectangle_439-24" data-name="Rectangle 439" width="1" height="153.798" transform="translate(161 201.202)" fill="#abe5e9" opacity="0.5"/>
      <rect id="Rectangle_439-25" data-name="Rectangle 439" width="1" height="153.798" transform="translate(168 201.202)" fill="#abe5e9" opacity="0.5"/>
      <rect id="Rectangle_439-26" data-name="Rectangle 439" width="1" height="153.798" transform="translate(175 201.202)" fill="#abe5e9" opacity="0.5"/>
      <rect id="Rectangle_439-27" data-name="Rectangle 439" width="1" height="153.798" transform="translate(182 201.202)" fill="#abe5e9" opacity="0.5"/>
      <rect id="Rectangle_439-28" data-name="Rectangle 439" width="1" height="153.798" transform="translate(189 201.202)" fill="#abe5e9" opacity="0.5"/>
      <rect id="Rectangle_439-29" data-name="Rectangle 439" width="1" height="153.798" transform="translate(196 201.202)" fill="#abe5e9" opacity="0.5"/>
      <rect id="Rectangle_439-30" data-name="Rectangle 439" width="1" height="153.798" transform="translate(203 201.202)" fill="#abe5e9" opacity="0.5"/>
      <rect id="Rectangle_439-31" data-name="Rectangle 439" width="1" height="153.798" transform="translate(210 201.202)" fill="#abe5e9" opacity="0.5"/>
      <rect id="Rectangle_439-32" data-name="Rectangle 439" width="1" height="153.798" transform="translate(217 201.202)" fill="#abe5e9" opacity="0.5"/>
      <rect id="Rectangle_439-33" data-name="Rectangle 439" width="1" height="153.798" transform="translate(224 201.202)" fill="#abe5e9" opacity="0.5"/>
      <rect id="Rectangle_439-34" data-name="Rectangle 439" width="1" height="153.798" transform="translate(231 201.202)" fill="#abe5e9" opacity="0.5"/>
      <rect id="Rectangle_439-35" data-name="Rectangle 439" width="1" height="153.798" transform="translate(238 201.202)" fill="#abe5e9" opacity="0.5"/>
      <rect id="Rectangle_439-36" data-name="Rectangle 439" width="1" height="153.798" transform="translate(245 201.202)" fill="#abe5e9" opacity="0.5"/>
      <rect id="Rectangle_439-37" data-name="Rectangle 439" width="1" height="153.798" transform="translate(252 201.202)" fill="#abe5e9" opacity="0.5"/>
      <rect id="Rectangle_439-38" data-name="Rectangle 439" width="1" height="153.798" transform="translate(259 201.202)" fill="#abe5e9" opacity="0.5"/>
      <rect id="Rectangle_439-39" data-name="Rectangle 439" width="1" height="153.798" transform="translate(266 201.202)" fill="#abe5e9" opacity="0.5"/>
      <rect id="Rectangle_439-40" data-name="Rectangle 439" width="1" height="153.798" transform="translate(273 201.202)" fill="#abe5e9" opacity="0.5"/>
      <rect id="Rectangle_439-41" data-name="Rectangle 439" width="1" height="153.798" transform="translate(280 201.202)" fill="#abe5e9" opacity="0.5"/>
      <rect id="Rectangle_439-42" data-name="Rectangle 439" width="1" height="153.798" transform="translate(287 201.202)" fill="#abe5e9" opacity="0.5"/>
      <rect id="Rectangle_439-43" data-name="Rectangle 439" width="1" height="153.798" transform="translate(294 201.202)" fill="#abe5e9" opacity="0.5"/>
      <rect id="Rectangle_439-44" data-name="Rectangle 439" width="1" height="153.798" transform="translate(301 201.202)" fill="#abe5e9" opacity="0.5"/>
      <rect id="Rectangle_439-45" data-name="Rectangle 439" width="1" height="153.798" transform="translate(308 201.202)" fill="#abe5e9" opacity="0.5"/>
      <rect id="Rectangle_439-46" data-name="Rectangle 439" width="1" height="153.798" transform="translate(315 201.202)" fill="#abe5e9" opacity="0.5"/>
      <rect id="Rectangle_439-47" data-name="Rectangle 439" width="1" height="153.798" transform="translate(322 201.202)" fill="#abe5e9" opacity="0.5"/>
      <rect id="Rectangle_439-48" data-name="Rectangle 439" width="1" height="153.798" transform="translate(329 201.202)" fill="#abe5e9" opacity="0.5"/>
      <rect id="Rectangle_439-49" data-name="Rectangle 439" width="1" height="153.798" transform="translate(336 201.202)" fill="#abe5e9" opacity="0.5"/>
      <rect id="Rectangle_439-50" data-name="Rectangle 439" width="1" height="153.798" transform="translate(343 201.202)" fill="#abe5e9" opacity="0.5"/>
      <rect id="Rectangle_439-51" data-name="Rectangle 439" width="1" height="153.798" transform="translate(350 201.202)" fill="#abe5e9" opacity="0.5"/>
      <rect id="Rectangle_439-52" data-name="Rectangle 439" width="1" height="153.798" transform="translate(357 201.202)" fill="#abe5e9" opacity="0.5"/>
      <rect id="Rectangle_439-53" data-name="Rectangle 439" width="1" height="153.798" transform="translate(364 201.202)" fill="#abe5e9" opacity="0.5"/>
      <rect id="Rectangle_439-54" data-name="Rectangle 439" width="1" height="153.798" transform="translate(371 201.202)" fill="#abe5e9" opacity="0.5"/>
    </g>
    <line id="dark_line" data-name="dark line" y2="154" transform="translate(3 201.5)" fill="none" stroke="#3d4648" stroke-width="1.5"/>
    <g id="white_area" data-name="white area" transform="translate(0 -12)" clip-path="url(#clip-path)">
      <path id="Subtraction_3" data-name="Subtraction 3" d="M379,154h-.127V53.6c-.064-.025-6.76-2.608-18.067-2.608A86.316,86.316,0,0,0,340.2,53.6c-13.089,3.228-24.624,7.837-36.837,12.717-10.407,4.158-21.168,8.458-34.553,12.71-7.566,2.4-13.818,4.28-19.738,5.63a75.526,75.526,0,0,1-17.008,2.154,55.766,55.766,0,0,1-17.3-2.774,94.681,94.681,0,0,1-19.571-9.252,49.037,49.037,0,0,1-7.98-6.047,78.466,78.466,0,0,1-7.169-7.615c-4.566-5.479-8.822-11.729-12.938-17.773C154.9,25.428,143.372,8.5,123.691,8.5c-.938,0-1.9.04-2.862.119C100.838,10.26,91.141,25.41,81.763,40.061c-3.706,5.79-7.538,11.777-11.968,16.906a53.289,53.289,0,0,1-7.216,7.016A39.031,39.031,0,0,1,53.9,69.25a45.472,45.472,0,0,1-18.35,3.893,49.522,49.522,0,0,1-14.168-2.136,59.949,59.949,0,0,1-11.263-4.7A56.89,56.89,0,0,1,0,59.469V0H379Z" transform="translate(0 213)" fill="#fff" opacity="0.7"/>
    </g>
    <line id="top_border" data-name="top border" x2="375" transform="translate(0 201)" fill="none" stroke="#d5dde5" stroke-width="1"/>
    <line id="bottom_border" data-name="bottom border" x2="375" transform="translate(0 355)" fill="none" stroke="#d5dde5" stroke-width="1"/>
  </g>
</svg>
