<svg xmlns="http://www.w3.org/2000/svg" width="26.322" height="26.322" viewBox="0 0 26.322 26.322">
  <path id="facebook" d="M20.544,7.758a13.042,13.042,0,0,1,6.643,1.807,13.294,13.294,0,0,1,3.325,20.08,13.41,13.41,0,0,1-7.426,4.435V24.619h2.581L26.25,20.9H22.342V18.466a2.116,2.116,0,0,1,.45-1.4,2.058,2.058,0,0,1,1.651-.628H26.8V13.183q-.051-.016-.964-.129a19.16,19.16,0,0,0-2.08-.129,5.2,5.2,0,0,0-3.733,1.331,5.145,5.145,0,0,0-1.4,3.82V20.9H15.65v3.718h2.974V34.08a13.087,13.087,0,0,1-8.048-4.435A13.279,13.279,0,0,1,13.9,9.565a13.047,13.047,0,0,1,6.643-1.807Z" transform="translate(-7.383 -7.758)" fill="#212d39" fill-rule="evenodd"/>
</svg>
