<svg xmlns="http://www.w3.org/2000/svg" width="212.368" height="170.628" viewBox="0 0 212.368 170.628">
  <g id="Heart_finish_page" data-name="Heart finish page" transform="translate(-72.632 -96.245)">
    <path id="heart_03" data-name="heart 03" d="M40.138.121c42.109-2.34,49,30.058,73.794,35.841,21.082,4.922,33.031-22.489,62.547-21.082s54.113,37.716,17.57,93.937c-43.24,66.524-76.976,70.081-108.7,53.414-41.465-21.787-66.5-51.06-78.947-81.289C-8.354,45.1,2.189,2.229,40.138.121" transform="translate(72.632 96.245)" fill="#e0f1f6"/>
    <path id="heart_02" data-name="heart 02" d="M29.971.09c31.442-1.747,36.588,22.444,55.1,26.762,15.742,3.675,24.664-16.792,46.7-15.742s38.554,23.35,11.268,65.33c-40.013,48.5-59.978,47.608-83.663,35.163-16.976-8.488-40.62-26.069-54.6-51.166S1.634,1.665,29.971.09" transform="translate(106.076 140.28)" fill="#219494" opacity="0.24"/>
    <g id="heart_01" data-name="heart 01">
      <path id="heart_bg" data-name="heart bg" d="M21.95.066C44.977-1.213,48.746,16.5,62.3,19.666c11.529,2.691,18.063-12.3,34.2-11.529s29.592,20.625,9.608,51.37C82.47,95.887,64.022,97.832,46.675,88.717,24,76.8,10.31,60.795,3.5,44.264-4.568,24.662,1.2,1.219,21.95.066" transform="translate(127.295 158.328)" fill="#fb8d94"/>
      <g id="heart_strips_icon" data-name="heart strips icon" transform="translate(-604.521 -1936.545)">
        <g id="Group_885" data-name="Group 885" transform="translate(746.999 2150.916)">
          <path id="Path_385" data-name="Path 385" d="M42.884-.117C78.983.108,85.795.5,85.767,1.945S83.241,4.129,42.884,4.087.114,3.3,0,1.945,6.784-.343,42.884-.117Z" transform="translate(0.001 0.151)" fill="#fe515c"/>
        </g>
        <g id="Group_894" data-name="Group 894" transform="translate(738.173 2141.157)">
          <path id="Path_385-2" data-name="Path 385" d="M52.032-.109c43.8.279,52.065.763,52.032,2.561S101,5.164,52.032,5.111.139,4.138,0,2.452,8.232-.389,52.032-.109Z" transform="translate(0.001 0.151)" fill="#fe515c"/>
        </g>
        <g id="Group_895" data-name="Group 895" transform="translate(733.315 2130.629)">
          <path id="Path_385-3" data-name="Path 385" d="M57.094-.105c48.061.307,57.13.839,57.093,2.818S110.824,5.7,57.094,5.638.152,4.568,0,2.713,9.033-.413,57.094-.105Z" transform="translate(0.001 0.151)" fill="#fe515c"/>
        </g>
        <g id="Group_896" data-name="Group 896" transform="translate(733.315 2119.629)">
          <path id="Path_385-4" data-name="Path 385" d="M57.094-.105c48.061.307,57.13.839,57.093,2.818S110.824,5.7,57.094,5.638.152,4.568,0,2.713,9.033-.413,57.094-.105Z" transform="translate(0.001 0.151)" fill="#fe515c"/>
        </g>
        <g id="Group_888" data-name="Group 888" transform="translate(752.042 2158.601)">
          <path id="Path_385-5" data-name="Path 385" d="M38.331-.118C73.208.144,76.686.41,76.661,1.655s-2.258,1.6-38.33,1.562S.1,2.822,0,1.655,3.454-.38,38.331-.118Z" transform="translate(0.002 0.165)" fill="#fe515c"/>
        </g>
        <g id="Group_897" data-name="Group 897" transform="translate(807.01 2111.598)">
          <path id="Path_385-6" data-name="Path 385" d="M18.846-.115C35.995.158,37.705.436,37.693,1.737s-1.11,1.671-18.847,1.633S.049,2.956,0,1.737,1.7-.389,18.846-.115Z" transform="translate(0.002 0.165)" fill="#fe515c"/>
        </g>
        <g id="Group_898" data-name="Group 898" transform="translate(736.01 2111.598)">
          <path id="Path_385-7" data-name="Path 385" d="M24.691-.115C47.158.158,49.4.436,49.382,1.737S47.928,3.408,24.691,3.369.065,2.957,0,1.737,2.224-.389,24.691-.115Z" transform="translate(0.002 0.165)" fill="#fe515c"/>
        </g>
        <g id="Group_889" data-name="Group 889" transform="translate(759.38 2164.849)">
          <path id="Path_385-8" data-name="Path 385" d="M31.647-.118c28.8.262,31.667.528,31.647,1.772s-1.864,1.6-31.647,1.562S.084,2.822,0,1.655,2.851-.38,31.647-.118Z" transform="translate(0.002 0.165)" fill="#fe515c"/>
        </g>
        <g id="Group_890" data-name="Group 890" transform="translate(764.622 2171.098)">
          <path id="Path_385-9" data-name="Path 385" d="M27.192-.124C51.933.1,54.4.332,54.383,1.407s-1.6,1.381-27.192,1.35S.072,2.416,0,1.407,2.45-.35,27.192-.124Z" transform="translate(0.002 0.165)" fill="#fe515c"/>
        </g>
        <g id="Group_891" data-name="Group 891" transform="translate(775.369 2177.467)">
          <path id="Path_385-10" data-name="Path 385" d="M18.411-.133c13.564-.075,18.423.45,18.412,1.51s-5.372,1.2-18.412,1.2S.048,2.371,0,1.377,4.847-.059,18.411-.133Z" transform="translate(0.001 0.14)" fill="#fe515c"/>
        </g>
        <g id="Group_899" data-name="Group 899" transform="translate(738.546 2103.676)">
          <path id="Path_385-11" data-name="Path 385" d="M18.411-.133c13.564-.075,18.423.45,18.412,1.51s-5.372,1.2-18.412,1.2S.048,2.371,0,1.377,4.847-.059,18.411-.133Z" transform="translate(0.001 0.14)" fill="#fe515c"/>
        </g>
        <g id="Group_900" data-name="Group 900" transform="translate(817.677 2105.389)">
          <path id="Path_385-12" data-name="Path 385" d="M9.18-.133c6.764-.075,9.187.45,9.181,1.51s-2.679,1.2-9.181,1.2S.023,2.371,0,1.377,2.416-.059,9.18-.133Z" transform="translate(0.001 0.14)" fill="#fe515c"/>
        </g>
        <g id="Group_901" data-name="Group 901" transform="translate(747.776 2097.516)">
          <path id="Path_385-13" data-name="Path 385" d="M9.18-.133c6.764-.075,9.187.45,9.181,1.51s-2.679,1.2-9.181,1.2S.023,2.371,0,1.377,2.416-.059,9.18-.133Z" transform="translate(0.001 0.14)" fill="#fe515c"/>
        </g>
        <g id="Group_892" data-name="Group 892" transform="translate(785.394 2183.046)">
          <path id="Path_385-14" data-name="Path 385" d="M8.386-.134C14.565-.2,16.778.257,16.773,1.18S14.326,2.223,8.386,2.223.021,2.046,0,1.18,2.207-.069,8.386-.134Z" transform="translate(0.001 0.14)" fill="#fe515c"/>
        </g>
      </g>
    </g>
  </g>
</svg>
