<svg id="twitter" xmlns="http://www.w3.org/2000/svg" width="28.847" height="23.439" viewBox="0 0 28.847 23.439">
  <g id="Group_786" data-name="Group 786" transform="translate(0 0)">
    <path id="Path_325" data-name="Path 325" d="M28.847,50.775a12.33,12.33,0,0,1-3.408.934,5.881,5.881,0,0,0,2.6-3.269,11.819,11.819,0,0,1-3.75,1.432,5.914,5.914,0,0,0-10.23,4.044,6.09,6.09,0,0,0,.137,1.349,16.739,16.739,0,0,1-12.19-6.186,5.916,5.916,0,0,0,1.817,7.9,5.841,5.841,0,0,1-2.672-.728v.065A5.941,5.941,0,0,0,5.892,62.13a5.9,5.9,0,0,1-1.551.195,5.229,5.229,0,0,1-1.12-.1,5.97,5.97,0,0,0,5.526,4.12,11.883,11.883,0,0,1-7.333,2.522A11.076,11.076,0,0,1,0,68.785a16.649,16.649,0,0,0,9.072,2.654c10.883,0,16.832-9.015,16.832-16.829,0-.261-.009-.514-.022-.764A11.8,11.8,0,0,0,28.847,50.775Z" transform="translate(0 -48)" fill="#212d39"/>
  </g>
</svg>
