<svg id="whatsup" xmlns="http://www.w3.org/2000/svg" width="27.296" height="27.297" viewBox="0 0 27.296 27.297">
  <path id="XMLID_469_" d="M93.919,88.274c-.053-.026-2.043-1.005-2.4-1.133a1.377,1.377,0,0,0-.464-.1.789.789,0,0,0-.67.4c-.2.3-.8,1-.986,1.209-.024.028-.057.061-.077.061s-.326-.127-.419-.167a10.472,10.472,0,0,1-3.977-3.533.22.22,0,0,1-.033-.079.642.642,0,0,1,.117-.138c.108-.107.226-.249.339-.385.054-.065.108-.13.161-.191a2.144,2.144,0,0,0,.323-.513l.045-.09a.928.928,0,0,0-.027-.873c-.047-.094-.887-2.122-.977-2.335-.215-.514-.5-.753-.893-.753-.037,0,0,0-.153.006a4.77,4.77,0,0,0-1.655.426,3.464,3.464,0,0,0-1.285,2.947,6.351,6.351,0,0,0,1.377,3.5c.01.014.029.042.057.082a12.964,12.964,0,0,0,5.56,4.827,9.043,9.043,0,0,0,3.359.859h0a5.246,5.246,0,0,0,.546-.032l.1-.009a3.53,3.53,0,0,0,2.462-1.742,2.754,2.754,0,0,0,.157-1.813A1.256,1.256,0,0,0,93.919,88.274Z" transform="translate(-73.721 -72.589)" fill="#212d39"/>
  <path id="XMLID_470_" d="M13.891,0A13.372,13.372,0,0,0,.484,13.306a13.209,13.209,0,0,0,1.838,6.729l-2.3,6.793a.354.354,0,0,0,.443.452l7.083-2.251A13.428,13.428,0,0,0,27.3,13.306,13.372,13.372,0,0,0,13.891,0Zm0,23.84A10.621,10.621,0,0,1,8.047,22.1a.355.355,0,0,0-.3-.041L4.2,23.184,5.343,19.8a.355.355,0,0,0-.05-.323,10.39,10.39,0,0,1-2.022-6.175A10.619,10.619,0,1,1,13.891,23.84Z" transform="translate(0)" fill="#212d39"/>
</svg>
