<svg xmlns="http://www.w3.org/2000/svg" width="21" height="28.636" viewBox="0 0 21 28.636">
  <g id="microphone" transform="translate(-5 -1)">
    <path id="Path_151" data-name="Path 151" d="M26,15.955a.955.955,0,1,0-1.909,0,8.591,8.591,0,1,1-17.182,0,.955.955,0,1,0-1.909,0,10.5,10.5,0,0,0,9.545,10.5v2.864a.955.955,0,0,0,1.909,0V26.454A10.5,10.5,0,0,0,26,15.955Z" transform="translate(0 -0.636)" fill="#212d39"/>
    <path id="Path_152" data-name="Path 152" d="M15.887,20.091a5.727,5.727,0,0,0,5.727-5.727V6.727a5.727,5.727,0,0,0-11.454,0v7.636A5.727,5.727,0,0,0,15.887,20.091ZM12.069,6.727a3.818,3.818,0,1,1,7.636,0v7.636a3.818,3.818,0,1,1-7.636,0Z" transform="translate(-0.235)" fill="#212d39"/>
  </g>
</svg>
